<svg width="82" height="68" viewBox="0 0 82 68" fill="none" xmlns="http://www.w3.org/2000/svg">
<path opacity="0.78" d="M9.5089 30.996C12.5111 27.9916 16.3319 25.9384 20.4942 25.0929C24.6565 24.2473 28.9756 24.647 32.9121 26.2418C36.8486 27.8366 40.2279 30.556 42.6279 34.0602C45.0279 37.5644 46.3422 41.6981 46.4066 45.9449C46.471 50.1917 45.2827 54.3633 42.9901 57.9387C40.6974 61.514 37.4022 64.3346 33.5158 66.0481C29.6295 67.7616 25.3245 68.292 21.1385 67.5731C16.9525 66.8542 13.0711 64.9178 9.97923 62.0058C9.72686 61.7764 9.47907 61.524 9.23817 61.2739C9.42874 61.6244 9.6402 61.963 9.8714 62.288L5.60399 67.0671C5.60399 67.0671 -7.41847 47.3659 9.5089 30.996Z" fill="#F79929"/>
<path opacity="0.78" d="M7.77925 35.0455C9.49324 38.9308 12.314 42.225 15.8892 44.5167C19.4643 46.8083 23.6355 47.9958 27.8816 47.9309C32.1277 47.8659 36.2605 46.5513 39.7639 44.1513C43.2673 41.7514 45.9859 38.3724 47.5802 34.4364C49.1745 30.5005 49.5738 26.182 48.7282 22.0204C47.8827 17.8589 45.8297 14.0387 42.8258 11.037C39.8219 8.03535 36.0001 5.98526 31.8379 5.14281C27.6758 4.30037 23.3576 4.70291 19.4228 6.30015C19.1016 6.43093 18.7827 6.56859 18.4661 6.71543C18.7713 6.45826 19.0907 6.21851 19.4228 5.99731L17.1698 0C17.1698 0 -2.09084 13.6649 7.77925 35.0455Z" fill="#E85C26"/>
<path opacity="0.78" d="M51.1492 17.494C47.2585 16.0138 43.0178 15.7128 38.957 16.6285C34.8961 17.5443 31.1951 19.6362 28.3162 22.643C25.4373 25.6498 23.5081 29.4382 22.7696 33.535C22.0311 37.6318 22.5161 41.8553 24.1639 45.6781C25.8117 49.5009 28.5493 52.7535 32.0348 55.0295C35.5203 57.3056 39.5991 58.5042 43.7619 58.4757C47.9246 58.4472 51.9866 57.1929 55.4406 54.8693C58.8947 52.5458 61.5875 49.2561 63.1829 45.4111C63.3136 45.0991 63.4352 44.7802 63.5522 44.459C63.5227 44.8496 63.469 45.2381 63.3916 45.6222L69.1274 48.1803C69.1274 48.1803 72.8625 25.3337 51.1492 17.494Z" fill="#0BA79A"/>
<path d="M9.03331 30.0059H12.4977C13.2809 30.0059 13.9704 30.1499 14.5662 30.4377C15.1687 30.7189 15.634 31.1239 15.962 31.6527C16.2967 32.1816 16.4641 32.8042 16.4641 33.5205C16.4641 34.2368 16.2967 34.8594 15.962 35.3882C15.634 35.9171 15.1687 36.3254 14.5662 36.6133C13.9704 36.8945 13.2809 37.035 12.4977 37.035H9.03331V30.0059ZM12.3972 35.1874C12.906 35.1874 13.311 35.0435 13.6123 34.7556C13.9202 34.461 14.0742 34.0493 14.0742 33.5205C14.0742 32.9916 13.9202 32.5833 13.6123 32.2954C13.311 32.0009 12.906 31.8536 12.3972 31.8536H11.4031V35.1874H12.3972ZM17.3294 30.0059H19.6992V37.035H17.3294V30.0059ZM25.6299 35.81H22.9588L22.4868 37.035H20.0769L23.1496 30.0059H25.4792L28.552 37.035H26.1018L25.6299 35.81ZM24.9772 34.1029L24.2943 32.3356L23.6115 34.1029H24.9772ZM28.9302 30.0059H31.3V35.1974H34.4731V37.035H28.9302V30.0059ZM38.7149 37.1957C37.9584 37.1957 37.279 37.0384 36.6765 36.7237C36.074 36.4091 35.602 35.974 35.2606 35.4183C34.9192 34.856 34.7485 34.2234 34.7485 33.5205C34.7485 32.8176 34.9192 32.1883 35.2606 31.6327C35.602 31.0703 36.074 30.6318 36.6765 30.3172C37.279 30.0026 37.9584 29.8453 38.7149 29.8453C39.4714 29.8453 40.1509 30.0026 40.7534 30.3172C41.3558 30.6318 41.8278 31.0703 42.1692 31.6327C42.5106 32.1883 42.6813 32.8176 42.6813 33.5205C42.6813 34.2234 42.5106 34.856 42.1692 35.4183C41.8278 35.974 41.3558 36.4091 40.7534 36.7237C40.1509 37.0384 39.4714 37.1957 38.7149 37.1957ZM38.7149 35.2778C39.0095 35.2778 39.2739 35.2075 39.5082 35.0669C39.7492 34.9196 39.94 34.7154 40.0806 34.4543C40.2211 34.1866 40.2914 33.8753 40.2914 33.5205C40.2914 33.1657 40.2211 32.8577 40.0806 32.5967C39.94 32.3289 39.7492 32.1247 39.5082 31.9841C39.2739 31.8368 39.0095 31.7632 38.7149 31.7632C38.4204 31.7632 38.1526 31.8368 37.9116 31.9841C37.6773 32.1247 37.4898 32.3289 37.3493 32.5967C37.2087 32.8577 37.1384 33.1657 37.1384 33.5205C37.1384 33.8753 37.2087 34.1866 37.3493 34.4543C37.4898 34.7154 37.6773 34.9196 37.9116 35.0669C38.1526 35.2075 38.4204 35.2778 38.7149 35.2778ZM48.1907 33.3297H50.2492V36.302C49.8342 36.5899 49.3522 36.8108 48.8033 36.9647C48.2543 37.1187 47.7154 37.1957 47.1866 37.1957C46.4368 37.1957 45.764 37.0417 45.1682 36.7338C44.5724 36.4192 44.1038 35.984 43.7624 35.4284C43.4277 34.8661 43.2603 34.2301 43.2603 33.5205C43.2603 32.8109 43.4277 32.1783 43.7624 31.6226C44.1038 31.0603 44.5757 30.6252 45.1782 30.3172C45.7874 30.0026 46.4736 29.8453 47.2368 29.8453C47.9263 29.8453 48.5422 29.9624 49.0844 30.1967C49.6334 30.4243 50.0886 30.759 50.4501 31.2009L48.9338 32.5364C48.492 32.0209 47.9665 31.7632 47.3573 31.7632C46.8351 31.7632 46.4201 31.9205 46.1121 32.2352C45.8042 32.5498 45.6502 32.9782 45.6502 33.5205C45.6502 34.0493 45.8008 34.4744 46.1021 34.7958C46.41 35.1171 46.8184 35.2778 47.3271 35.2778C47.6284 35.2778 47.9162 35.2209 48.1907 35.107V33.3297ZM54.6229 37.1957C53.5451 37.1957 52.705 36.9045 52.1025 36.3221C51.5 35.7397 51.1987 34.923 51.1987 33.8719V30.0059H53.5685V33.8016C53.5685 34.3171 53.6589 34.692 53.8397 34.9263C54.0271 35.1606 54.2949 35.2778 54.643 35.2778C54.9911 35.2778 55.2555 35.1606 55.4363 34.9263C55.6237 34.692 55.7174 34.3171 55.7174 33.8016V30.0059H58.0471V33.8719C58.0471 34.923 57.7458 35.7397 57.1433 36.3221C56.5409 36.9045 55.7007 37.1957 54.6229 37.1957ZM64.9776 35.2476V37.035H59.1334V30.0059H64.847V31.7933H61.463V32.6167H64.4353V34.3238H61.463V35.2476H64.9776Z" fill="white"/>
<path d="M14.5966 45.0791H11.9255L11.4536 46.3042H9.04358L12.1163 39.2751H14.446L17.5187 46.3042H15.0685L14.5966 45.0791ZM13.9439 43.3721L13.2611 41.6047L12.5782 43.3721H13.9439ZM21.4339 46.4649C20.6908 46.4649 20.0214 46.3109 19.4256 46.003C18.8298 45.6883 18.3612 45.2532 18.0197 44.6975C17.685 44.1352 17.5177 43.4992 17.5177 42.7896C17.5177 42.08 17.685 41.4474 18.0197 40.8918C18.3612 40.3295 18.8298 39.8943 19.4256 39.5864C20.0214 39.2717 20.6908 39.1144 21.4339 39.1144C22.1167 39.1144 22.7259 39.2349 23.2615 39.4759C23.797 39.7169 24.2388 40.065 24.5869 40.5202L23.0907 41.8558C22.6556 41.3068 22.1435 41.0324 21.5544 41.0324C21.059 41.0324 20.6607 41.193 20.3594 41.5144C20.0582 41.829 19.9076 42.2541 19.9076 42.7896C19.9076 43.3252 20.0582 43.7536 20.3594 44.075C20.6607 44.3896 21.059 44.5469 21.5544 44.5469C22.1435 44.5469 22.6556 44.2725 23.0907 43.7235L24.5869 45.059C24.2388 45.5143 23.797 45.8624 23.2615 46.1034C22.7259 46.3444 22.1167 46.4649 21.4339 46.4649ZM29.963 45.0791H27.2919L26.8199 46.3042H24.41L27.4827 39.2751H29.8123L32.8851 46.3042H30.4349L29.963 45.0791ZM29.3103 43.3721L28.6274 41.6047L27.9446 43.3721H29.3103ZM33.2633 39.2751H36.7276C37.5109 39.2751 38.2004 39.419 38.7962 39.7069C39.3987 39.988 39.8639 40.3931 40.192 40.9219C40.5267 41.4508 40.694 42.0733 40.694 42.7896C40.694 43.5059 40.5267 44.1285 40.192 44.6574C39.8639 45.1862 39.3987 45.5946 38.7962 45.8825C38.2004 46.1636 37.5109 46.3042 36.7276 46.3042H33.2633V39.2751ZM36.6272 44.4565C37.136 44.4565 37.541 44.3126 37.8422 44.0248C38.1502 43.7302 38.3041 43.3185 38.3041 42.7896C38.3041 42.2608 38.1502 41.8524 37.8422 41.5646C37.541 41.27 37.136 41.1227 36.6272 41.1227H35.6331V44.4565H36.6272ZM47.4036 44.5168V46.3042H41.5593V39.2751H47.273V41.0625H43.889V41.8859H46.8613V43.593H43.889V44.5168H47.4036ZM54.5918 46.3042L54.5718 43.1009L53.0454 45.6716H52.0011L50.4748 43.2114V46.3042H48.3158V39.2751H50.2639L52.5534 43.0206L54.7826 39.2751H56.7307L56.7508 46.3042H54.5918ZM62.0738 43.7536V46.3042H59.704V43.7235L57.0531 39.2751H59.5534L60.9894 41.7052L62.4353 39.2751H64.7248L62.0738 43.7536Z" fill="white"/>
</svg>
