<svg width="210" height="132" viewBox="0 0 210 132" fill="none" xmlns="http://www.w3.org/2000/svg">
<g filter="url(#filter0_d_549_10594)">
<rect x="26.3086" y="12.3608" width="179.825" height="60" transform="rotate(15.3351 26.3086 12.3608)" fill="#FEDA43"/>
</g>
<path d="M42.6682 43.4779C42.9939 42.9161 43.6581 42.6529 44.661 42.6884C45.6638 42.7239 47.1433 42.9435 49.0994 43.3473C51.0738 43.7548 52.548 44.2307 53.5222 44.7748C54.5 45.3007 54.9286 45.8561 54.8078 46.4411C54.7512 46.7153 54.6 46.8938 54.3543 46.9765C54.1305 47.0447 53.9288 47.0983 53.7492 47.1375C53.5916 47.1621 53.3701 47.1736 53.0845 47.1718C52.8173 47.1738 52.5683 47.1796 52.3376 47.1892C52.1107 47.1805 51.8106 47.1567 51.4375 47.1178C51.0826 47.0826 50.7734 47.0569 50.5099 47.0407C50.2502 47.0061 49.9044 46.9729 49.4727 46.9409C49.0446 46.8907 48.6532 46.848 48.2983 46.8129C47.9434 46.7777 47.001 46.7262 45.4712 46.6582L45.4655 46.6856C45.3297 47.3437 44.686 49.0311 43.5343 51.7477C43.7682 51.815 44.1959 51.9128 44.8175 52.0411C45.4573 52.1732 46.2986 52.2992 47.3412 52.4191C48.3876 52.5208 49.0662 52.6036 49.377 52.6678C49.706 52.7357 49.9633 52.8746 50.1487 53.0844C50.3341 53.2942 50.406 53.4997 50.3645 53.7008C50.2626 54.1944 49.8796 54.5727 49.2153 54.8359C48.5511 55.099 47.7576 55.2497 46.8348 55.288C44.9892 55.3645 43.3954 55.2833 42.0533 55.0444C41.0256 57.2529 40.3931 58.609 40.1557 59.1127C39.9403 59.602 39.7196 60.071 39.4936 60.5199C39.0634 61.4032 38.7478 61.8241 38.5467 61.7826C38.1628 61.7034 37.7305 61.1662 37.2497 60.1711C36.769 59.1761 36.572 58.4683 36.6588 58.0478C36.8097 57.3166 37.7368 55.0873 39.4402 51.36C41.1618 47.6365 42.1538 45.2777 42.4162 44.2835L42.4614 44.0642C42.5105 43.8265 42.5794 43.6311 42.6682 43.4779ZM64.5618 57.7749C64.3769 58.6707 63.5985 59.3487 62.2264 59.8088C60.8727 60.2727 59.556 60.3726 58.2763 60.1085C56.9966 59.8443 55.9643 59.5359 55.1794 59.1833C54.913 59.6429 54.7288 60.1196 54.6269 60.6132C54.5251 61.1067 54.5337 61.4802 54.653 61.7336C54.776 61.9686 55.1666 62.1541 55.8247 62.2899C57.1958 62.5729 58.3922 62.6865 59.414 62.6305C60.454 62.5784 60.9923 62.5561 61.0288 62.5636C61.7784 62.7183 62.1022 63.0425 62.0003 63.5361C61.8531 64.249 61.1194 64.8028 59.799 65.1974C58.4969 65.5957 57.0689 65.6345 55.515 65.3137C53.9794 64.9968 52.8454 64.2576 52.1131 63.0962C51.3807 61.9349 51.1504 60.6961 51.4221 59.3798C51.6976 58.0453 52.3683 56.7352 53.4342 55.4494C54.5184 54.1675 55.7455 53.1628 57.1155 52.4354C58.4893 51.6897 59.752 51.4357 60.9037 51.6735C62.0737 51.915 63.0335 52.7135 63.7829 54.069C64.5361 55.4062 64.7958 56.6415 64.5618 57.7749ZM61.4714 56.6796C61.5092 56.4968 61.3719 56.1921 61.0597 55.7655C60.7475 55.3389 60.4177 55.0898 60.0704 55.0181C59.7413 54.9501 59.2608 55.1083 58.6287 55.4924C58.0005 55.8583 57.3694 56.3761 56.7356 57.0458C56.8964 57.098 57.1322 57.1562 57.4429 57.2204C59.9475 57.7374 61.2903 57.5571 61.4714 56.6796ZM77.9514 60.5388C77.7665 61.4346 76.9881 62.1125 75.616 62.5727C74.2623 63.0366 72.9456 63.1365 71.6659 62.8723C70.3862 62.6082 69.3539 62.2998 68.569 61.9472C68.3026 62.4068 68.1184 62.8834 68.0165 63.377C67.9147 63.8706 67.9233 64.2441 68.0426 64.4974C68.1656 64.7324 68.5562 64.9179 69.2143 65.0537C70.5854 65.3368 71.7818 65.4503 72.8036 65.3944C73.8436 65.3422 74.3819 65.3199 74.4184 65.3274C75.168 65.4822 75.4918 65.8063 75.3899 66.2999C75.2427 67.0129 74.509 67.5666 73.1886 67.9612C71.8865 68.3595 70.4585 68.3983 68.9046 68.0776C67.369 67.7606 66.235 67.0214 65.5027 65.8601C64.7703 64.6987 64.54 63.4599 64.8117 62.1437C65.0872 60.8091 65.7579 59.499 66.8238 58.2133C67.908 56.9313 69.1351 55.9266 70.5051 55.1992C71.8789 54.4535 73.1416 54.1996 74.2933 54.4373C75.4633 54.6788 76.4231 55.4773 77.1725 56.8328C77.9257 58.17 78.1854 59.4053 77.9514 60.5388ZM74.861 59.4434C74.8988 59.2606 74.7615 58.9559 74.4493 58.5293C74.1371 58.1027 73.8073 57.8536 73.46 57.7819C73.1309 57.714 72.6504 57.8721 72.0183 58.2563C71.3901 58.6221 70.759 59.1399 70.1252 59.8096C70.286 59.8619 70.5218 59.9201 70.8325 59.9842C73.3371 60.5012 74.6799 60.3209 74.861 59.4434ZM85.5659 48.7589C86.0046 48.8494 86.4883 49.3686 87.017 50.3164C87.5456 51.2641 87.7345 52.1037 87.5835 52.8349C87.4326 53.5662 87.0531 54.8506 86.445 56.6883C85.8408 58.5077 85.3047 59.9505 84.8369 61.0166C81.9535 67.3212 80.2102 70.4112 79.6069 70.2867C79.2047 70.2037 78.768 69.78 78.2968 69.0156C77.8476 68.2367 77.6665 67.6371 77.7532 67.2166C77.7608 67.18 78.2038 66.2803 79.0823 64.5175C79.9608 62.7547 80.9487 60.4618 82.0461 57.6387C83.1655 54.801 84.0007 52.0477 84.5516 49.3786C84.6611 48.8485 84.9992 48.6419 85.5659 48.7589ZM98.3798 74.1332C97.9959 74.0539 97.5453 73.513 97.028 72.5104C96.5144 71.4895 96.3048 70.7505 96.3991 70.2935C96.4973 69.8182 97.0639 68.458 98.0992 66.2129C97.751 65.6836 97.6448 65.0899 97.7807 64.4317C97.8561 64.0661 98.3703 63.7911 99.3233 63.6066C101.441 59.1643 102.628 56.3216 102.885 55.0785C103.009 54.4752 103.337 54.2283 103.867 54.3377C104.306 54.4283 104.782 54.984 105.295 56.0049C105.827 57.0296 106.014 57.9258 105.855 58.6936C105.753 59.1872 105.085 60.7646 103.849 63.4258C105.478 63.4761 107.075 63.6342 108.64 63.9001C110.276 60.4067 111.219 58.0567 111.468 56.8502C111.592 56.2469 111.92 55.9999 112.45 56.1094C112.889 56.1999 113.365 56.7557 113.878 57.7766C114.41 58.8012 114.597 59.6975 114.438 60.4653C114.359 60.8492 113.678 62.3478 112.395 64.9611C113.264 65.3692 113.648 65.82 113.546 66.3136C113.429 66.8803 112.66 67.1886 111.239 67.2384C110.06 69.6254 109.285 71.2094 108.914 71.9906C108.547 72.7534 108.266 73.3338 108.069 73.7316C107.895 74.1149 107.713 74.4872 107.524 74.8485C107.168 75.5565 106.899 75.8916 106.716 75.8539C106.277 75.7633 105.819 75.3066 105.341 74.4836C104.881 73.6644 104.723 72.9074 104.866 72.2127C104.949 71.8105 105.701 70.1074 107.121 67.1032C104.947 67.0166 103.263 67.0025 102.07 67.0611C101.054 69.1196 100.366 70.5595 100.006 71.381C99.6494 72.1842 99.3767 72.7665 99.1878 73.1277C98.832 73.8358 98.5626 74.1709 98.3798 74.1332ZM127.038 70.671C126.853 71.5668 126.074 72.2448 124.702 72.7049C123.349 73.1688 122.032 73.2687 120.752 73.0045C119.472 72.7404 118.44 72.432 117.655 72.0794C117.389 72.539 117.205 73.0156 117.103 73.5092C117.001 74.0028 117.01 74.3763 117.129 74.6296C117.252 74.8647 117.642 75.0501 118.301 75.186C119.672 75.469 120.868 75.5825 121.89 75.5266C122.93 75.4744 123.468 75.4521 123.505 75.4597C124.254 75.6144 124.578 75.9385 124.476 76.4321C124.329 77.1451 123.595 77.6989 122.275 78.0934C120.973 78.4918 119.545 78.5306 117.991 78.2098C116.455 77.8928 115.321 77.1537 114.589 75.9923C113.857 74.8309 113.626 73.5921 113.898 72.2759C114.173 70.9414 114.844 69.6312 115.91 68.3455C116.994 67.0635 118.221 66.0589 119.591 65.3315C120.965 64.5858 122.228 64.3318 123.38 64.5695C124.55 64.811 125.509 65.6095 126.259 66.965C127.012 68.3022 127.272 69.5376 127.038 70.671ZM123.947 69.5757C123.985 69.3929 123.848 69.0881 123.536 68.6616C123.223 68.235 122.894 67.9858 122.546 67.9141C122.217 67.8462 121.737 68.0043 121.105 68.3885C120.476 68.7544 119.845 69.2722 119.212 69.9419C119.372 69.9941 119.608 70.0523 119.919 70.1164C122.423 70.6334 123.766 70.4532 123.947 69.5757ZM139.542 74.5386C139.811 74.8991 139.92 75.1981 139.871 75.4358C139.822 75.6734 139.611 76.1444 139.237 76.8486C138.863 77.5529 138.595 78.1077 138.436 78.5131C138.279 78.9002 138.149 79.2069 138.046 79.4332C137.96 79.6633 137.893 79.8496 137.844 79.9921C137.8 80.1163 137.729 80.2733 137.633 80.463C137.555 80.6566 137.484 80.8136 137.421 80.934C137.38 81.0399 137.315 81.1695 137.227 81.3227C137.16 81.4614 137.09 81.5708 137.016 81.6509C136.946 81.7127 136.865 81.7817 136.773 81.858C136.633 81.9816 136.435 82.017 136.179 81.9642C135.923 81.9114 135.656 81.5894 135.378 80.9983C135.118 80.4109 134.972 79.7328 134.94 78.9638C132.86 80.3641 131.234 80.9435 130.064 80.702C129.278 80.5397 128.517 79.9346 127.78 78.8867C127.047 77.8205 126.769 76.8578 126.947 75.9986C127.128 75.1211 127.777 73.9591 128.896 72.5126C130.014 71.0661 131.391 69.797 133.027 68.7051C134.681 67.617 136.175 67.2107 137.51 67.4862C138.277 67.6447 139.072 68.2756 139.892 69.3789C140.713 70.4823 141.046 71.4087 140.891 72.1582C140.74 72.8895 140.29 73.6829 139.542 74.5386ZM130.668 77.2242C131.399 77.3751 132.47 77.0815 133.88 76.3434C135.313 75.5907 136.332 74.4859 136.937 73.029C137.001 72.8133 137.183 72.7175 137.483 72.7413C137.643 71.6879 137.577 71.1311 137.284 71.0707C136.553 70.9197 135.632 71.2252 134.522 71.9872C133.43 72.7529 132.48 73.6147 131.673 74.5725C130.883 75.5341 130.436 76.2709 130.33 76.7828C130.3 76.929 130.297 77.0333 130.323 77.0957C130.37 77.1436 130.485 77.1864 130.668 77.2242ZM143.731 73.6022L144.206 70.4696C144.418 69.4458 144.843 69 145.483 69.132C145.849 69.2075 146.177 69.4182 146.467 69.7641C146.777 70.1138 146.962 70.6 147.024 71.2228C147.759 70.8026 148.526 70.5035 149.325 70.3254C150.146 70.1327 150.84 70.0949 151.407 70.2119C152.741 70.4874 153.343 70.945 153.211 71.5849C153.143 71.9139 153.028 72.1475 152.866 72.2856C152.726 72.4093 152.612 72.5001 152.524 72.5581C152.454 72.6199 152.323 72.6978 152.132 72.7918C151.963 72.8713 151.837 72.9309 151.752 72.9707C151.275 73.1581 150.934 73.2878 150.729 73.3598C149.8 73.7018 148.968 74.1781 148.232 74.7886C147.5 75.3808 146.856 76.2866 146.299 77.5059C145.371 79.5064 144.562 80.9785 143.872 81.9225C143.204 82.8519 142.577 83.2562 141.992 83.1355C141.425 83.0185 141.052 82.6556 140.873 82.0468C140.712 81.4417 140.681 80.9015 140.779 80.4262C140.881 79.9326 141.205 79.2372 141.752 78.34C142.318 77.4466 142.737 76.6657 143.008 75.9975C143.301 75.3147 143.542 74.5163 143.731 73.6022ZM166.409 65.4462C166.847 65.5367 167.34 66.0578 167.887 67.0093C168.438 67.9426 168.642 68.7566 168.498 69.4513C168.426 69.7986 167.808 71.1768 166.644 73.5858C165.48 75.9948 164.779 77.4512 164.541 77.955C161.777 83.9601 160.057 86.8929 159.38 86.7533C158.996 86.674 158.614 86.3568 158.233 85.8017C157.852 85.2465 157.707 84.7496 157.797 84.3108C157.816 84.2194 157.84 84.1482 157.87 84.0971C155.732 85.2188 154.261 85.6967 153.457 85.5306C152.671 85.3684 151.99 84.7894 151.414 83.7937C150.86 82.7836 150.655 81.9312 150.798 81.2365C150.942 80.5418 151.192 79.7928 151.548 78.9896C151.926 78.1719 152.415 77.3293 153.013 76.4617C153.612 75.594 154.252 74.8017 154.933 74.0847C155.637 73.3532 156.409 72.7979 157.25 72.4187C158.113 72.0249 158.937 71.9092 159.723 72.0715C160.893 72.313 161.73 73.1052 162.235 74.4482C164.116 70.3194 165.186 67.5382 165.444 66.1047C165.557 65.5562 165.878 65.3367 166.409 65.4462ZM154.532 82.1216C154.989 82.216 155.838 81.9814 157.079 81.418C158.338 80.8583 159.358 80.0299 160.137 78.9327C160.149 78.7827 160.206 78.4609 160.307 77.9673C160.409 77.4737 160.341 76.9736 160.103 76.4669C159.864 75.9602 159.608 75.6786 159.333 75.622C158.785 75.5088 158.194 75.6918 157.562 76.1712C156.948 76.6543 156.411 77.2679 155.953 78.0119C154.98 79.5837 154.403 80.8084 154.222 81.6859C154.192 81.8321 154.189 81.9365 154.215 81.9989C154.262 82.0467 154.368 82.0877 154.532 82.1216Z" fill="black"/>
<g filter="url(#filter1_d_549_10594)">
<path d="M42.3603 6.27973L31.3357 24.5872L31 24.3571L41.5914 5.83301L42.3603 6.27973Z" fill="url(#paint0_linear_549_10594)"/>
<path d="M47.4043 4.30066C47.3574 5.1027 47.0736 5.8728 46.5889 6.51351C46.1041 7.15423 45.4403 7.63677 44.6812 7.90009C43.9222 8.16341 43.1021 8.19568 42.3247 7.99281C41.5473 7.78995 40.8476 7.36106 40.314 6.76041C39.7804 6.15976 39.437 5.41435 39.3272 4.61847C39.2174 3.8226 39.3461 3.01203 39.697 2.28932C40.048 1.56661 40.6054 0.964236 41.2988 0.558404C41.9922 0.152572 42.7903 -0.0384787 43.5923 0.00942407C44.6666 0.0735939 45.6716 0.561588 46.3863 1.3662C47.1011 2.17082 47.4672 3.22626 47.4043 4.30066Z" fill="#E66321"/>
<path style="mix-blend-mode:multiply" d="M47.4043 4.30066C47.3574 5.1027 47.0736 5.8728 46.5889 6.51351C46.1041 7.15423 45.4403 7.63677 44.6812 7.90009C43.9222 8.16341 43.1021 8.19568 42.3247 7.99281C41.5473 7.78995 40.8476 7.36106 40.314 6.76041C39.7804 6.15976 39.437 5.41435 39.3272 4.61847C39.2174 3.8226 39.3461 3.01203 39.697 2.28932C40.048 1.56661 40.6054 0.964236 41.2988 0.558404C41.9922 0.152572 42.7903 -0.0384787 43.5923 0.00942407C44.6666 0.0735939 45.6716 0.561588 46.3863 1.3662C47.1011 2.17082 47.4672 3.22626 47.4043 4.30066Z" fill="url(#paint1_radial_549_10594)"/>
<path style="mix-blend-mode:screen" opacity="0.8" d="M46.2897 6.8591C45.7361 7.44146 45.0222 7.84652 44.2384 8.02302C43.4545 8.19952 42.6359 8.13954 41.8862 7.85066C41.1364 7.56178 40.4892 7.05699 40.0264 6.40016C39.5636 5.74333 39.3061 4.96398 39.2864 4.16074C39.2667 3.3575 39.4857 2.56646 39.9157 1.88772C40.3457 1.20898 40.9674 0.673047 41.702 0.347739C42.4367 0.0224316 43.2514 -0.0776318 44.043 0.0602111C44.8345 0.198054 45.5674 0.567608 46.1489 1.12211C46.9276 1.86465 47.3798 2.88585 47.4061 3.96148C47.4325 5.03711 47.031 6.07926 46.2897 6.8591Z" fill="url(#paint2_radial_549_10594)"/>
</g>
<defs>
<filter id="filter0_d_549_10594" x="0.441406" y="6.36084" width="209.289" height="125.421" filterUnits="userSpaceOnUse" color-interpolation-filters="sRGB">
<feFlood flood-opacity="0" result="BackgroundImageFix"/>
<feColorMatrix in="SourceAlpha" type="matrix" values="0 0 0 0 0 0 0 0 0 0 0 0 0 0 0 0 0 0 127 0" result="hardAlpha"/>
<feOffset dy="4"/>
<feGaussianBlur stdDeviation="5"/>
<feComposite in2="hardAlpha" operator="out"/>
<feColorMatrix type="matrix" values="0 0 0 0 0 0 0 0 0 0 0 0 0 0 0 0 0 0 0.1 0"/>
<feBlend mode="normal" in2="BackgroundImageFix" result="effect1_dropShadow_549_10594"/>
<feBlend mode="normal" in="SourceGraphic" in2="effect1_dropShadow_549_10594" result="shape"/>
</filter>
<filter id="filter1_d_549_10594" x="27" y="0" width="24.4102" height="32.5872" filterUnits="userSpaceOnUse" color-interpolation-filters="sRGB">
<feFlood flood-opacity="0" result="BackgroundImageFix"/>
<feColorMatrix in="SourceAlpha" type="matrix" values="0 0 0 0 0 0 0 0 0 0 0 0 0 0 0 0 0 0 127 0" result="hardAlpha"/>
<feOffset dy="4"/>
<feGaussianBlur stdDeviation="2"/>
<feComposite in2="hardAlpha" operator="out"/>
<feColorMatrix type="matrix" values="0 0 0 0 0 0 0 0 0 0 0 0 0 0 0 0 0 0 0.25 0"/>
<feBlend mode="normal" in2="BackgroundImageFix" result="effect1_dropShadow_549_10594"/>
<feBlend mode="normal" in="SourceGraphic" in2="effect1_dropShadow_549_10594" result="shape"/>
</filter>
<linearGradient id="paint0_linear_549_10594" x1="37.8102" y1="15.3264" x2="37.046" y2="14.8832" gradientUnits="userSpaceOnUse">
<stop stop-color="#848388"/>
<stop offset="0.28" stop-color="#9A999F"/>
<stop offset="0.5" stop-color="#AFAEB5"/>
<stop offset="1" stop-color="#848388"/>
</linearGradient>
<radialGradient id="paint1_radial_549_10594" cx="0" cy="0" r="1" gradientUnits="userSpaceOnUse" gradientTransform="translate(44.9167 2.88862) rotate(3.39) scale(4.0584)">
<stop offset="0.2" stop-color="#FFF6F6"/>
<stop offset="0.37" stop-color="#F1C6BB"/>
<stop offset="0.62" stop-color="#DF866B"/>
<stop offset="0.8" stop-color="#D35D38"/>
<stop offset="0.88" stop-color="#CF4D25"/>
</radialGradient>
<radialGradient id="paint2_radial_549_10594" cx="0" cy="0" r="1" gradientUnits="userSpaceOnUse" gradientTransform="translate(44.467 4.0215) rotate(43.7811) scale(4.82481)">
<stop offset="0.17"/>
<stop offset="0.63"/>
<stop offset="0.67" stop-color="#050403"/>
<stop offset="0.72" stop-color="#150F0D"/>
<stop offset="0.77" stop-color="#2F221C"/>
<stop offset="0.83" stop-color="#543D31"/>
<stop offset="0.89" stop-color="#825F4D"/>
<stop offset="0.96" stop-color="#BA876E"/>
<stop offset="1" stop-color="#E6A788"/>
</radialGradient>
</defs>
</svg>
