<svg width="269" height="113" viewBox="0 0 269 113" fill="none" xmlns="http://www.w3.org/2000/svg">
<g filter="url(#filter0_d_549_10603)">
<rect width="240.842" height="60.08" transform="matrix(0.990458 -0.137818 0.15467 0.987966 10.6875 39.4238)" fill="#FEDA43"/>
</g>
<path d="M40.3562 70.5278C41.3278 70.3411 42.3626 70.0947 43.4606 69.7887C44.5546 69.4644 45.23 69.2776 45.4866 69.2283C45.7616 69.1754 45.9865 69.1987 46.1614 69.2981C46.3546 69.394 46.4713 69.533 46.5116 69.7153C46.6891 70.5172 46.0694 71.3013 44.6528 72.0677C43.2361 72.834 41.6743 73.4192 39.9673 73.8233C39.7403 76.166 39.6913 77.629 39.8203 78.2122C39.8888 78.5221 40.0789 78.6471 40.3906 78.5872C42.4803 78.1855 44.5737 77.4981 46.6708 76.525C47.3781 76.1801 47.7867 75.997 47.8967 75.9759C48.245 75.909 48.4735 76.1215 48.5824 76.6136C48.7276 77.2698 48.3829 78.0011 47.5484 78.8075C46.714 79.6139 45.6038 80.3403 44.218 80.9867C42.8321 81.6331 41.4335 82.0919 40.022 82.3632C39.1787 82.5253 38.3494 82.3616 37.5341 81.8723C36.7147 81.3648 36.2123 80.6918 36.0268 79.8534C35.8373 78.9968 35.833 76.7745 36.0139 73.1866C36.2131 69.5951 36.1487 66.9283 35.8206 65.1863C35.7902 65.1351 35.7569 65.0275 35.7206 64.8635C35.6641 64.6083 35.6564 64.4008 35.6975 64.2409C35.7862 63.6918 36.2748 63.2654 37.1631 62.9617C38.0474 62.6397 39.6811 62.2497 42.0641 61.7917C46.0237 61.0306 48.1002 61.0875 48.2937 61.9624C48.4187 62.5274 48.0196 63.0126 47.0965 63.4181C46.4688 63.6907 45.5917 64.0018 44.465 64.3513C42.7313 64.8936 41.2101 65.49 39.9016 66.1405C40.1758 67.3799 40.2724 68.8529 40.1913 70.5596L40.3562 70.5278ZM62.1129 77.2907C62.2621 77.9651 62.0342 78.3604 61.4293 78.4767C60.4394 78.6669 58.8718 77.7142 56.7264 75.6184C55.1689 78.4259 54.0327 79.8983 53.3177 80.0357C52.8228 80.1308 52.2938 79.9855 51.7307 79.5997C51.1818 79.1922 50.8671 78.8061 50.7865 78.4416C50.7663 78.3505 50.9084 78.0857 51.2127 77.6472C52.4157 75.9149 53.3893 74.3122 54.1336 72.8391C53.0308 71.5689 52.0614 70.3397 51.2252 69.1513C50.3889 67.963 49.9406 67.2321 49.8801 66.9587C49.8156 66.6671 49.7824 66.474 49.7806 66.3793C49.7832 66.1318 49.9219 65.9816 50.1969 65.9288C50.9668 65.7808 51.8077 65.7807 52.7194 65.9285C53.6455 66.0545 54.1529 66.318 54.2416 66.719C54.3827 67.3569 54.8633 68.2336 55.6834 69.349C56.4549 67.5666 57.1163 66.2805 57.6677 65.4904C58.2375 64.6969 58.7423 64.2578 59.1823 64.1733C59.6406 64.0852 60.2031 64.2526 60.87 64.6754C61.5552 65.0948 61.9442 65.514 62.0369 65.9332C62.0813 66.1337 62.0411 66.3409 61.9164 66.5549C61.7918 66.7689 61.5927 67.0352 61.3192 67.3537C61.0416 67.6541 60.7813 67.9892 60.5382 68.3589C60.3135 68.7251 59.5785 70.1109 58.3334 72.5164L59.4393 73.7574C61.1168 75.6391 62.008 76.8168 62.1129 77.2907ZM69.6593 65.5797C69.6215 66.1 69.5548 66.8349 69.459 67.7843C69.3776 68.712 69.2733 69.8817 69.146 71.2932C69.037 72.7012 68.9926 73.4508 69.0128 73.5419C69.0289 73.6148 69.1836 73.6231 69.4769 73.5667C69.7886 73.5068 70.4683 73.1671 71.5161 72.5477C72.5599 71.9101 73.1826 71.5719 73.3843 71.5331C73.8426 71.445 74.1402 71.7108 74.2773 72.3305C74.4144 72.9502 73.9656 73.8155 72.931 74.9264C71.8923 76.0191 70.7039 76.694 69.3657 76.9512C68.7791 77.064 68.012 76.8789 67.0643 76.396C66.1166 75.9132 65.5702 75.3436 65.425 74.6875C65.3041 74.1407 65.325 72.9396 65.4879 71.0842C65.665 69.2071 65.7818 67.9211 65.8383 67.2262C65.1678 67.5641 64.6492 67.7683 64.2825 67.8387C63.9159 67.9092 63.4765 67.7371 62.9644 67.3225C62.4482 66.8897 62.1397 66.4455 62.0389 65.9899C61.9099 65.4066 63.2217 64.6415 65.9743 63.6944C65.9476 61.9324 65.7972 60.4318 65.523 59.1924C65.402 58.6456 65.6165 58.3194 66.1665 58.2137C66.6431 58.1221 67.3125 58.2974 68.1748 58.7397C69.0513 59.1603 69.5521 59.653 69.6771 60.218C69.7981 60.7648 69.8503 61.5623 69.8338 62.6106C70.7056 62.405 71.3706 62.2582 71.8289 62.1701C73.2038 61.9058 73.9597 62.0836 74.0968 62.7032C74.1855 63.1042 73.8588 63.528 73.1168 63.9747C72.389 64.3995 71.2365 64.9346 69.6593 65.5797ZM87.6732 64.0555C87.8708 64.9486 87.4341 65.8686 86.3631 66.8154C85.3105 67.7588 84.1427 68.3538 82.8595 68.6004C81.5763 68.847 80.5021 68.9585 79.6369 68.9348C79.5808 69.4586 79.6071 69.9666 79.716 70.4587C79.8249 70.9508 79.986 71.2903 80.1993 71.4773C80.4087 71.6461 80.8433 71.6671 81.5032 71.5402C82.8781 71.276 84.023 70.9229 84.9381 70.481C85.8716 70.0356 86.3566 69.8093 86.3933 69.8023C87.1448 69.6578 87.5751 69.8317 87.6839 70.3238C87.8412 71.0346 87.3946 71.8235 86.3442 72.6904C85.3121 73.5538 84.017 74.1352 82.4589 74.4347C80.9191 74.7307 79.5749 74.4855 78.4263 73.6992C77.2777 72.9129 76.5582 71.8636 76.2679 70.5514C75.9736 69.2209 76.0521 67.7617 76.5035 66.1739C76.9732 64.5825 77.6878 63.1911 78.6473 61.9996C79.6027 60.7899 80.6579 60.0741 81.8128 59.8521C82.986 59.6266 84.1945 59.9929 85.4384 60.9509C86.6783 61.8906 87.4232 62.9255 87.6732 64.0555ZM84.3868 64.2311C84.3465 64.0489 84.0955 63.8216 83.634 63.5493C83.1724 63.277 82.7675 63.1743 82.4192 63.2413C82.0892 63.3047 81.7129 63.6335 81.2902 64.2278C80.8634 64.8039 80.4964 65.5204 80.1891 66.3775C80.3581 66.364 80.5984 66.3273 80.9101 66.2675C83.4214 65.7848 84.5803 65.106 84.3868 64.2311ZM97.7686 56.7854C98.7218 56.6022 99.6506 56.8702 100.555 57.5894C101.474 58.2868 102.04 59.1186 102.254 60.0845C102.596 61.6337 102.699 63.3052 102.56 65.0989C102.436 66.8708 102.173 68.2705 101.769 69.2981C101.384 70.3221 100.88 70.8941 100.257 71.0138C99.6521 71.1301 99.2548 70.7599 99.0653 69.9033C98.9202 69.2472 98.9303 67.8677 99.0958 65.7648C99.1911 64.0363 99.1602 62.8167 99.003 62.1059C98.8457 61.3951 98.6754 61.0573 98.4921 61.0925C98.2538 61.1383 98.0417 61.3026 97.8558 61.5854C97.6883 61.8646 97.5513 62.1094 97.445 62.3198C97.3387 62.5303 97.2169 62.8007 97.0798 63.1311C96.957 63.4397 96.8485 63.7266 96.7542 63.9917C96.6743 64.2351 96.5647 64.5602 96.4253 64.967C96.3003 65.352 96.1998 65.6753 96.1239 65.9369C96.044 66.1803 95.9435 66.5036 95.8225 66.9069C94.8193 70.4059 93.8319 72.2488 92.8604 72.4355C92.4754 72.5095 91.9171 72.2748 91.1853 71.7314C90.4495 71.1698 90.0474 70.7341 89.9788 70.4242C89.9345 70.2237 89.968 69.7708 90.0795 69.0653C90.2053 68.3381 90.2849 67.7908 90.3183 67.4233C90.3659 67.0341 90.3821 66.632 90.3667 66.2169C90.3696 65.7984 90.3482 65.356 90.3024 64.8897C90.2526 64.4053 90.2086 64.0337 90.1705 63.775C90.1507 63.5128 90.0986 63.1048 90.0143 62.551C89.6552 60.1499 89.5023 58.8112 89.5559 58.5349C89.6277 58.2551 89.737 58.1011 89.8836 58.0729C90.5802 57.939 91.3138 58.102 92.0844 58.5619C92.851 59.0036 93.2867 59.4614 93.3916 59.9353C93.6416 61.0653 93.7071 62.7438 93.5882 64.9707C94.3201 62.6639 95.0267 60.7611 95.7079 59.262C96.4034 57.7413 97.0903 56.9157 97.7686 56.7854ZM112.923 45.8923C113.363 45.8077 114.029 46.0977 114.921 46.7623C115.809 47.4086 116.33 48.078 116.483 48.7706C116.56 49.1169 116.558 50.6184 116.477 53.2751C116.395 55.9319 116.349 57.5368 116.338 58.0901C116.262 64.6599 115.886 68.01 115.207 68.1404C114.822 68.2143 114.341 68.0693 113.764 67.7053C113.186 67.3412 112.849 66.9405 112.752 66.5031C112.732 66.4119 112.725 66.3373 112.732 66.2791C111.229 68.1259 110.075 69.1269 109.268 69.2819C108.48 69.4334 107.617 69.1622 106.68 68.4683C105.757 67.7526 105.219 67.0484 105.066 66.3558C104.913 65.6632 104.835 64.8801 104.833 64.0065C104.845 63.1111 104.948 62.1508 105.142 61.1255C105.335 60.1003 105.598 59.1282 105.93 58.2094C106.276 57.2688 106.757 56.4638 107.373 55.7943C108.004 55.1031 108.714 54.6817 109.502 54.5302C110.675 54.3047 111.768 54.7121 112.782 55.7523C112.816 51.2425 112.658 48.2803 112.307 46.8657C112.186 46.319 112.391 45.9945 112.923 45.8923ZM108.857 65.7412C109.316 65.6531 109.999 65.1132 110.907 64.1216C111.833 63.1265 112.429 61.9764 112.695 60.6713C112.644 60.529 112.565 60.2119 112.456 59.7197C112.347 59.2276 112.079 58.7946 111.652 58.4206C111.226 58.0466 110.875 57.886 110.6 57.9389C110.05 58.0446 109.583 58.4383 109.199 59.1202C108.833 59.7986 108.592 60.5669 108.476 61.4252C108.228 63.2401 108.2 64.5849 108.394 65.4597C108.426 65.6055 108.466 65.7023 108.515 65.7499C108.578 65.7758 108.692 65.7729 108.857 65.7412ZM134.984 52.3402C135.955 52.1534 136.99 51.907 138.088 51.601C139.182 51.2767 139.857 51.0899 140.114 51.0406C140.389 50.9877 140.614 51.011 140.789 51.1104C140.982 51.2063 141.099 51.3453 141.139 51.5276C141.316 52.3295 140.697 53.1137 139.28 53.88C137.863 54.6463 136.302 55.2315 134.595 55.6356C134.368 57.9783 134.319 59.4413 134.448 60.0246C134.516 60.3344 134.706 60.4594 135.018 60.3995C137.108 59.9978 139.201 59.3104 141.298 58.3374C142.005 57.9924 142.414 57.8094 142.524 57.7882C142.872 57.7213 143.101 57.9339 143.21 58.426C143.355 59.0821 143.01 59.8134 142.176 60.6198C141.341 61.4262 140.231 62.1526 138.845 62.799C137.459 63.4454 136.061 63.9042 134.649 64.1755C133.806 64.3376 132.977 64.174 132.161 63.6846C131.342 63.1771 130.84 62.5041 130.654 61.6657C130.465 60.8091 130.46 58.5868 130.641 54.9989C130.84 51.4074 130.776 48.7406 130.448 46.9986C130.418 46.9475 130.384 46.8399 130.348 46.6758C130.291 46.4207 130.284 46.2131 130.325 46.0532C130.414 45.5041 130.902 45.0777 131.79 44.774C132.675 44.452 134.308 44.062 136.691 43.604C140.651 42.8429 142.728 42.8998 142.921 43.7747C143.046 44.3397 142.647 44.8249 141.724 45.2304C141.096 45.503 140.219 45.8141 139.092 46.1637C137.359 46.7059 135.837 47.3023 134.529 47.9528C134.803 49.1922 134.9 50.6652 134.819 52.3719L134.984 52.3402ZM161.927 44.4539C162.642 44.3165 163.343 44.6758 164.029 45.532C164.715 46.3881 165.145 47.2081 165.319 47.9918C165.492 48.7755 165.594 49.9719 165.625 51.581C165.671 53.1684 165.523 54.7454 165.181 56.3121C164.854 57.857 164.315 58.7017 163.563 58.8462C162.958 58.9625 162.565 58.6105 162.384 57.7903C162.202 56.9702 162.144 55.5848 162.21 53.6341C162.275 51.6834 162.243 50.4165 162.114 49.8333C161.985 49.25 161.829 48.976 161.645 49.0113C161.261 49.0853 160.895 49.5925 160.549 50.5331C160.203 51.4737 159.809 52.7179 159.368 54.2657C158.945 55.8101 158.687 56.8004 158.592 57.2366C158.497 57.6728 158.412 58.0217 158.336 58.2833C158.279 58.5413 158.205 58.8121 158.115 59.0954C157.742 60.1741 156.963 60.3239 155.777 59.5446C155.173 59.1477 154.827 58.7487 154.739 58.3477C154.722 58.2748 154.716 57.554 154.719 56.1854C154.736 54.795 154.557 53.2523 154.182 51.5573C154.025 50.8465 153.864 50.5069 153.699 50.5386C153.479 50.5809 153.271 50.8489 153.074 51.3427C152.878 51.8365 152.604 52.7157 152.253 53.9802C151.902 55.2447 151.589 56.2929 151.315 57.1247C150.351 60.027 149.467 61.5556 148.66 61.7106C148.257 61.7881 147.678 61.5479 146.924 60.9898C146.188 60.4281 145.782 59.9742 145.705 59.6279C145.625 59.2634 145.637 58.368 145.742 56.9418C145.861 55.4938 145.806 53.9937 145.577 52.4416C145.367 50.886 145.213 49.671 145.115 48.7968C145.036 47.919 145.161 47.4484 145.491 47.385C146.187 47.2511 146.921 47.4141 147.692 47.874C148.477 48.3122 148.921 48.7682 149.026 49.2421C149.264 50.3174 149.285 52.2705 149.09 55.1012C149.7 51.8108 150.326 49.5434 150.968 48.299C151.656 47.0075 152.432 46.279 153.293 46.1134C153.77 46.0217 154.453 46.3464 155.343 47.0874C156.252 47.8248 156.791 48.5763 156.96 49.3418C157.125 50.0891 157.261 50.7469 157.368 51.3155C157.622 49.7846 158.193 48.3068 159.082 46.8819C159.971 45.457 160.919 44.6477 161.927 44.4539ZM175.938 41.7894C176.617 41.659 177.474 42.1213 178.51 43.1763C179.564 44.2277 180.224 45.3548 180.49 46.5578C180.652 47.2868 180.532 48.2124 180.13 49.3346C179.729 50.4569 179.15 51.5561 178.394 52.6324C177.653 53.6869 176.728 54.6438 175.618 55.5031C174.527 56.3589 173.423 56.8942 172.304 57.1091L171.974 57.1725C171.876 62.1697 171.588 64.7141 171.112 64.8057C170.727 64.8797 170.253 64.6383 169.69 64.0814C169.109 63.528 168.772 63.0418 168.68 62.6226C168.587 62.2034 168.568 60.8673 168.624 58.6145C168.789 51.9324 168.513 46.9692 167.795 43.725C167.674 43.1782 167.88 42.8538 168.411 42.7516C168.851 42.667 169.465 42.8056 170.252 43.1673C171.039 43.5291 171.602 44.086 171.94 44.838C173.176 43.0804 174.509 42.0642 175.938 41.7894ZM172.107 53.7554C173.476 53.2072 174.65 52.1645 175.629 50.6273C176.626 49.0866 177.019 47.8424 176.81 46.8947C176.6 45.9469 176.229 45.5241 175.698 45.6263C174.928 45.7743 174.209 46.3685 173.541 47.4089C173.273 47.8404 173.007 48.4521 172.743 49.2439C172.479 50.0358 172.295 50.9355 172.193 51.9432L172.107 53.7554ZM193.836 44.9333C194.23 45.1615 194.454 45.394 194.506 45.631C194.559 45.8679 194.557 46.3812 194.503 47.1707C194.448 47.9603 194.431 48.5717 194.45 49.005C194.465 49.42 194.472 49.7513 194.469 49.9988C194.485 50.2428 194.5 50.4395 194.514 50.5888C194.524 50.7199 194.523 50.891 194.513 51.102C194.52 51.3096 194.52 51.4806 194.511 51.6153C194.517 51.7282 194.511 51.8719 194.492 52.0465C194.488 52.1994 194.468 52.3266 194.433 52.4283C194.394 52.5118 194.348 52.6062 194.295 52.7114C194.218 52.8783 194.05 52.9865 193.794 53.0358C193.537 53.0851 193.16 52.8916 192.662 52.4553C192.182 52.0154 191.77 51.4486 191.426 50.7548C190.09 52.8357 188.835 53.9888 187.662 54.2143C186.874 54.3658 185.927 54.1014 184.82 53.4209C183.71 52.7222 183.061 51.9446 182.871 51.0879C182.678 50.2131 182.797 48.898 183.231 47.1426C183.664 45.3872 184.408 43.6957 185.462 42.068C186.535 40.4368 187.74 39.4926 189.078 39.2354C189.848 39.0874 190.836 39.3631 192.042 40.0624C193.247 40.7617 193.933 41.4849 194.098 42.2322C194.26 42.9612 194.172 43.8616 193.836 44.9333ZM186.79 50.7908C187.523 50.6498 188.386 49.971 189.378 48.7543C190.384 47.5158 190.867 46.112 190.826 44.5428C190.795 44.3206 190.923 44.1631 191.208 44.0702C190.923 43.0419 190.634 42.5559 190.341 42.6123C189.608 42.7533 188.888 43.3857 188.181 44.5096C187.492 45.63 186.974 46.7842 186.625 47.9723C186.295 49.1569 186.186 50.0043 186.299 50.5146C186.331 50.6604 186.372 50.7572 186.42 50.8048C186.483 50.8307 186.607 50.826 186.79 50.7908ZM202.605 40.0272C202.567 40.5475 202.5 41.2823 202.405 42.2318C202.323 43.1595 202.219 44.3291 202.092 45.7406C201.983 47.1486 201.938 47.8982 201.958 47.9893C201.974 48.0623 202.129 48.0705 202.422 48.0141C202.734 47.9542 203.414 47.6146 204.462 46.9952C205.505 46.3575 206.128 46.0193 206.33 45.9806C206.788 45.8925 207.086 46.1583 207.223 46.778C207.36 47.3977 206.911 48.263 205.877 49.3739C204.838 50.4666 203.649 51.1415 202.311 51.3987C201.725 51.5114 200.958 51.3264 200.01 50.8435C199.062 50.3606 198.516 49.7911 198.371 49.135C198.25 48.5882 198.271 47.3871 198.433 45.5317C198.611 43.6545 198.727 42.3685 198.784 41.6736C198.113 42.0115 197.595 42.2157 197.228 42.2862C196.861 42.3566 196.422 42.1846 195.91 41.77C195.394 41.3372 195.085 40.8929 194.984 40.4373C194.855 39.8541 196.167 39.0889 198.92 38.1418C198.893 36.3799 198.743 34.8792 198.469 33.6398C198.348 33.0931 198.562 32.7668 199.112 32.6611C199.589 32.5695 200.258 32.7449 201.12 33.1872C201.997 33.6077 202.498 34.1005 202.623 34.6655C202.744 35.2123 202.796 36.0098 202.779 37.058C203.651 36.8524 204.316 36.7056 204.774 36.6175C206.149 36.3533 206.905 36.531 207.042 37.1507C207.131 37.5517 206.804 37.9755 206.062 38.4221C205.335 38.847 204.182 39.382 202.605 40.0272ZM209.167 28.5909C208.997 27.8254 209.215 27.3846 209.82 27.2683C210.315 27.1732 210.974 27.474 211.797 28.1709C212.62 28.8677 213.096 29.5078 213.225 30.091C213.354 30.6742 213.417 31.5173 213.412 32.6202C213.408 33.7231 213.374 34.7367 213.311 35.6608C213.266 36.5815 213.176 37.9004 213.04 39.6177C212.899 41.3167 212.808 42.5028 212.766 43.1759C213.425 40.5411 214.248 38.3404 215.233 36.574C216.236 34.804 217.187 33.8327 218.085 33.6601C218.654 33.5509 219.415 33.927 220.37 34.7885C221.321 35.6318 221.885 36.4544 222.063 37.2563C222.236 38.0401 222.344 39.2165 222.385 40.7856C222.426 42.3547 222.236 43.9115 221.813 45.4558C221.39 47.0001 220.794 47.8463 220.024 47.9943C219.419 48.1105 219.022 47.7404 218.832 46.8837C218.695 46.2641 218.655 45.2173 218.711 43.7434C218.779 41.5453 218.762 40.2183 218.661 39.7627C218.561 39.307 218.437 39.0933 218.29 39.1215C217.227 39.3259 216.058 41.3841 214.783 45.2964C214.353 46.6332 213.964 47.639 213.616 48.3138C213.287 48.9851 212.911 49.3613 212.49 49.4424C212.068 49.5234 211.48 49.2849 210.726 48.7268C209.99 48.1652 209.582 47.7021 209.502 47.3376C209.417 46.9548 209.367 46.3848 209.353 45.6276C209.356 44.8669 209.365 43.7822 209.378 42.3736C209.41 40.9614 209.401 38.4169 209.352 34.7402C209.317 31.0416 209.256 28.9919 209.167 28.5909ZM233.07 31.4925C233.08 31.0157 233.332 30.7297 233.827 30.6346C234.322 30.5395 234.894 30.7524 235.545 31.2734C236.213 31.7909 236.634 32.4416 236.808 33.2253C236.908 33.6809 236.903 34.4326 236.791 35.4802C236.678 36.5278 236.595 37.2753 236.541 37.7227C236.506 38.1666 236.44 38.7777 236.345 39.556C236.246 40.3162 236.154 41.0272 236.072 41.6892C236.003 42.3294 235.898 43.1951 235.757 44.2862C235.635 45.3738 235.524 46.3832 235.424 47.3144C235.219 49.064 234.802 50.4646 234.175 51.5162C233.566 52.5643 232.611 53.2134 231.309 53.4636C230.008 53.7137 228.767 53.5912 227.587 53.0959C226.412 52.6188 225.747 52.034 225.594 51.3414C225.501 50.9222 225.582 50.4222 225.835 49.8414C226.107 49.2571 226.372 48.9403 226.628 48.891C226.903 48.8381 227.298 48.9808 227.812 49.3189C228.349 49.6718 228.893 50.0138 229.444 50.3449C229.999 50.6943 230.451 50.8355 230.799 50.7685C231.037 50.7227 231.206 50.5764 231.304 50.3295C231.42 50.079 231.504 49.8539 231.556 49.654C231.629 49.4688 231.687 49.2108 231.728 48.8798C231.774 48.567 231.814 48.2743 231.849 48.0015C231.885 47.7287 231.92 47.3704 231.956 46.9265C231.991 46.4827 232.019 46.0879 232.038 45.7422C232.132 44.6981 232.204 43.7722 232.254 42.9644C231.823 43.8644 231.339 44.613 230.802 45.2102C230.261 45.7891 229.716 46.1315 229.166 46.2372C228.634 46.3393 227.876 46.067 226.892 45.42C225.923 44.7514 225.331 43.934 225.117 42.9681C224.9 41.9839 224.82 40.6311 224.879 38.9097C224.956 37.1848 225.174 35.6228 225.534 34.2236C225.893 32.8245 226.32 32.0774 226.815 31.9823C227.383 31.873 227.969 32.0169 228.573 32.4139C229.191 32.7891 229.551 33.2045 229.651 33.6602C229.748 34.0976 229.676 34.8525 229.436 35.9248C229.214 36.9935 229.002 38.1552 228.802 39.4097C228.602 40.6643 228.592 41.7016 228.774 42.5218C228.798 42.6311 228.856 42.677 228.948 42.6594C229.186 42.6136 229.593 42.0793 230.17 41.0565C230.742 40.0154 231.325 38.5922 231.92 36.7869C232.528 34.9598 232.912 33.195 233.07 31.4925Z" fill="black"/>
<g filter="url(#filter1_d_549_10603)">
<path d="M40.5373 28.3787L52.4156 46.975L52.7773 46.7412L41.3657 27.9249L40.5373 28.3787Z" fill="url(#paint0_linear_549_10603)"/>
<path d="M35.1039 26.3684C35.1545 27.1831 35.4603 27.9653 35.9825 28.6161C36.5048 29.2669 37.2201 29.7571 38.0379 30.0246C38.8557 30.2921 39.7393 30.3248 40.5769 30.1188C41.4145 29.9127 42.1684 29.477 42.7433 28.8669C43.3182 28.2568 43.6882 27.4996 43.8066 26.6912C43.9249 25.8828 43.7862 25.0594 43.4081 24.3253C43.03 23.5912 42.4294 22.9793 41.6823 22.5671C40.9352 22.1548 40.0752 21.9608 39.2111 22.0094C38.0536 22.0746 36.9709 22.5703 36.2007 23.3876C35.4306 24.2049 35.0361 25.277 35.1039 26.3684Z" fill="#E66321"/>
<path style="mix-blend-mode:multiply" d="M35.1039 26.3684C35.1545 27.1831 35.4603 27.9653 35.9825 28.6161C36.5048 29.2669 37.2201 29.7571 38.0379 30.0246C38.8557 30.2921 39.7393 30.3248 40.5769 30.1188C41.4145 29.9127 42.1684 29.477 42.7433 28.8669C43.3182 28.2568 43.6882 27.4996 43.8066 26.6912C43.9249 25.8828 43.7862 25.0594 43.4081 24.3253C43.03 23.5912 42.4294 22.9793 41.6823 22.5671C40.9352 22.1548 40.0752 21.9608 39.2111 22.0094C38.0536 22.0746 36.9709 22.5703 36.2007 23.3876C35.4306 24.2049 35.0361 25.277 35.1039 26.3684Z" fill="url(#paint1_radial_549_10603)"/>
<path style="mix-blend-mode:screen" opacity="0.8" d="M36.3006 28.9672C36.8971 29.5587 37.6663 29.9702 38.5108 30.1495C39.3554 30.3288 40.2374 30.2678 41.0452 29.9744C41.853 29.681 42.5504 29.1682 43.049 28.501C43.5476 27.8338 43.8251 27.0422 43.8463 26.2263C43.8676 25.4103 43.6316 24.6068 43.1683 23.9174C42.705 23.2279 42.0352 22.6835 41.2436 22.3531C40.452 22.0227 39.5742 21.921 38.7214 22.061C37.8685 22.2011 37.0788 22.5764 36.4523 23.1397C35.6134 23.8939 35.1262 24.9313 35.0977 26.0239C35.0693 27.1165 35.5019 28.175 36.3006 28.9672Z" fill="url(#paint2_radial_549_10603)"/>
</g>
<defs>
<filter id="filter0_d_549_10603" x="0.6875" y="0.231445" width="267.836" height="112.549" filterUnits="userSpaceOnUse" color-interpolation-filters="sRGB">
<feFlood flood-opacity="0" result="BackgroundImageFix"/>
<feColorMatrix in="SourceAlpha" type="matrix" values="0 0 0 0 0 0 0 0 0 0 0 0 0 0 0 0 0 0 127 0" result="hardAlpha"/>
<feOffset dy="4"/>
<feGaussianBlur stdDeviation="5"/>
<feComposite in2="hardAlpha" operator="out"/>
<feColorMatrix type="matrix" values="0 0 0 0 0 0 0 0 0 0 0 0 0 0 0 0 0 0 0.1 0"/>
<feBlend mode="normal" in2="BackgroundImageFix" result="effect1_dropShadow_549_10603"/>
<feBlend mode="normal" in="SourceGraphic" in2="effect1_dropShadow_549_10603" result="shape"/>
</filter>
<filter id="filter1_d_549_10603" x="31.0977" y="21.9999" width="25.6797" height="32.9751" filterUnits="userSpaceOnUse" color-interpolation-filters="sRGB">
<feFlood flood-opacity="0" result="BackgroundImageFix"/>
<feColorMatrix in="SourceAlpha" type="matrix" values="0 0 0 0 0 0 0 0 0 0 0 0 0 0 0 0 0 0 127 0" result="hardAlpha"/>
<feOffset dy="4"/>
<feGaussianBlur stdDeviation="2"/>
<feComposite in2="hardAlpha" operator="out"/>
<feColorMatrix type="matrix" values="0 0 0 0 0 0 0 0 0 0 0 0 0 0 0 0 0 0 0.25 0"/>
<feBlend mode="normal" in2="BackgroundImageFix" result="effect1_dropShadow_549_10603"/>
<feBlend mode="normal" in="SourceGraphic" in2="effect1_dropShadow_549_10603" result="shape"/>
</filter>
<linearGradient id="paint0_linear_549_10603" x1="45.4397" y1="37.5681" x2="46.238" y2="37.0771" gradientUnits="userSpaceOnUse">
<stop stop-color="#848388"/>
<stop offset="0.28" stop-color="#9A999F"/>
<stop offset="0.5" stop-color="#AFAEB5"/>
<stop offset="1" stop-color="#848388"/>
</linearGradient>
<radialGradient id="paint1_radial_549_10603" cx="0" cy="0" r="1" gradientUnits="userSpaceOnUse" gradientTransform="translate(37.7841 24.934) rotate(176.804) scale(4.37185 4.12323)">
<stop offset="0.2" stop-color="#FFF6F6"/>
<stop offset="0.37" stop-color="#F1C6BB"/>
<stop offset="0.62" stop-color="#DF866B"/>
<stop offset="0.8" stop-color="#D35D38"/>
<stop offset="0.88" stop-color="#CF4D25"/>
</radialGradient>
<radialGradient id="paint2_radial_549_10603" cx="0" cy="0" r="1" gradientUnits="userSpaceOnUse" gradientTransform="translate(38.2645 26.0848) rotate(137.903) scale(5.05821 5.03682)">
<stop offset="0.17"/>
<stop offset="0.63"/>
<stop offset="0.67" stop-color="#050403"/>
<stop offset="0.72" stop-color="#150F0D"/>
<stop offset="0.77" stop-color="#2F221C"/>
<stop offset="0.83" stop-color="#543D31"/>
<stop offset="0.89" stop-color="#825F4D"/>
<stop offset="0.96" stop-color="#BA876E"/>
<stop offset="1" stop-color="#E6A788"/>
</radialGradient>
</defs>
</svg>
